<svg width="152" height="150" viewBox="0 0 152 150" fill="none" xmlns="http://www.w3.org/2000/svg">
<path d="M0 0H39C58.33 0 74 15.67 74 35V39C74 58.33 58.33 74 39 74H35C15.67 74 0 58.33 0 39V0Z" fill="#54BFDF"/>
<path d="M32.9517 56H29.0739L40.2898 25.4545H44.108L55.3239 56H51.446L42.3182 30.2869H42.0795L32.9517 56ZM34.3835 44.0682H50.0142V47.3494H34.3835V44.0682Z" fill="white"/>
<path d="M0 110C0 90.67 15.67 75 35 75H39C58.33 75 74 90.67 74 110V114C74 133.33 58.33 149 39 149H0V110Z" fill="#868686"/>
<path d="M75 35C75 15.67 90.67 0 110 0H149V39C149 58.33 133.33 74 114 74H110C90.67 74 75 58.33 75 39V35Z" fill="#FE9900"/>
<path d="M78 111C78 91.67 93.67 76 113 76H117C136.33 76 152 91.67 152 111V150H113C93.67 150 78 134.33 78 115V111Z" fill="#3B99B6"/>
<path d="M102.952 56H99.0739L110.29 25.4545H114.108L125.324 56H121.446L112.318 30.2869H112.08L102.952 56ZM104.384 44.0682H120.014V47.3494H104.384V44.0682Z" fill="white"/>
<path d="M42.7955 117.455H46.8523L50.2528 121.929L51.1477 123.122L56.2188 129.864H52.1619L48.821 125.389L47.9858 124.256L42.7955 117.455ZM57.4716 111.727C57.4716 114.949 56.8899 117.733 55.7266 120.08C54.5632 122.426 52.9673 124.236 50.9389 125.509C48.9105 126.781 46.5938 127.418 43.9886 127.418C41.3835 127.418 39.0668 126.781 37.0384 125.509C35.0099 124.236 33.4141 122.426 32.2507 120.08C31.0874 117.733 30.5057 114.949 30.5057 111.727C30.5057 108.506 31.0874 105.722 32.2507 103.375C33.4141 101.028 35.0099 99.2188 37.0384 97.946C39.0668 96.6733 41.3835 96.0369 43.9886 96.0369C46.5938 96.0369 48.9105 96.6733 50.9389 97.946C52.9673 99.2188 54.5632 101.028 55.7266 103.375C56.8899 105.722 57.4716 108.506 57.4716 111.727ZM53.892 111.727C53.892 109.082 53.4496 106.85 52.5646 105.031C51.6896 103.211 50.5014 101.834 49 100.899C47.5085 99.9645 45.8381 99.4972 43.9886 99.4972C42.1392 99.4972 40.4638 99.9645 38.9624 100.899C37.4709 101.834 36.2827 103.211 35.3977 105.031C34.5227 106.85 34.0852 109.082 34.0852 111.727C34.0852 114.372 34.5227 116.604 35.3977 118.424C36.2827 120.244 37.4709 121.621 38.9624 122.555C40.4638 123.49 42.1392 123.957 43.9886 123.957C45.8381 123.957 47.5085 123.49 49 122.555C50.5014 121.621 51.6896 120.244 52.5646 118.424C53.4496 116.604 53.892 114.372 53.892 111.727Z" fill="white"/>
<path d="M98.6989 127V96.4545H109.02C111.406 96.4545 113.365 96.8622 114.896 97.6776C116.428 98.483 117.561 99.5916 118.297 101.004C119.033 102.415 119.401 104.021 119.401 105.821C119.401 107.621 119.033 109.217 118.297 110.609C117.561 112.001 116.433 113.094 114.911 113.89C113.39 114.675 111.446 115.068 109.08 115.068H100.727V111.727H108.96C110.591 111.727 111.903 111.489 112.898 111.011C113.902 110.534 114.628 109.858 115.075 108.983C115.533 108.098 115.761 107.044 115.761 105.821C115.761 104.598 115.533 103.529 115.075 102.614C114.618 101.7 113.887 100.994 112.883 100.496C111.879 99.9893 110.551 99.7358 108.901 99.7358H102.398V127H98.6989ZM113.077 113.278L120.594 127H116.298L108.901 113.278H113.077Z" fill="white"/>
<path d="M32.9517 56H29.0739L40.2898 25.4545H44.108L55.3239 56H51.446L42.3182 30.2869H42.0795L32.9517 56ZM34.3835 44.0682H50.0142V47.3494H34.3835V44.0682Z" fill="white"/>
</svg>
